<svg width="1920" height="200" viewBox="0 0 1920 200" xmlns="http://www.w3.org/2000/svg">
  <!-- House 1 -->
  <path d="M0 200 L0 120 L50 120 L50 80 L100 30 L150 80 L150 120 L200 120 L200 200 Z" fill="#222" />
  
  <!-- House 2 -->
  <path d="M220 200 L220 100 L270 100 L270 70 L320 20 L370 70 L370 100 L420 100 L420 200 Z" fill="#222" />
  
  <!-- House 3 with chimney -->
  <path d="M440 200 L440 110 L490 110 L490 60 L540 10 L590 60 L590 110 L640 110 L640 200 Z" fill="#222" />
  <rect x="580" y="30" width="20" height="40" fill="#222" />
  
  <!-- House 4 -->
  <path d="M660 200 L660 120 L710 120 L710 80 L760 30 L810 80 L810 120 L860 120 L860 200 Z" fill="#222" />
  
  <!-- House 5 -->
  <path d="M880 200 L880 130 L930 130 L930 90 L980 40 L1030 90 L1030 130 L1080 130 L1080 200 Z" fill="#222" />
  
  <!-- House 6 with chimney -->
  <path d="M1100 200 L1100 110 L1150 110 L1150 60 L1200 10 L1250 60 L1250 110 L1300 110 L1300 200 Z" fill="#222" />
  <rect x="1120" y="30" width="20" height="40" fill="#222" />
  
  <!-- House 7 -->
  <path d="M1320 200 L1320 120 L1370 120 L1370 80 L1420 30 L1470 80 L1470 120 L1520 120 L1520 200 Z" fill="#222" />
  
  <!-- House 8 -->
  <path d="M1540 200 L1540 130 L1590 130 L1590 90 L1640 40 L1690 90 L1690 130 L1740 130 L1740 200 Z" fill="#222" />
  
  <!-- House 9 with chimney -->
  <path d="M1760 200 L1760 110 L1810 110 L1810 60 L1860 10 L1910 60 L1910 110 L1960 110 L1960 200 Z" fill="#222" />
  <rect x="1880" y="30" width="20" height="40" fill="#222" />
</svg> 